<?xml version="1.0" encoding="UTF-8" standalone="no"?>
<svg
   xmlns:dc="http://purl.org/dc/elements/1.1/"
   xmlns:cc="http://creativecommons.org/ns#"
   xmlns:rdf="http://www.w3.org/1999/02/22-rdf-syntax-ns#"
   xmlns:svg="http://www.w3.org/2000/svg"
   xmlns="http://www.w3.org/2000/svg"
   xmlns:sodipodi="http://sodipodi.sourceforge.net/DTD/sodipodi-0.dtd"
   xmlns:inkscape="http://www.inkscape.org/namespaces/inkscape"
   version="1.1"
   id="svg6"
   sodipodi:docname="arrow.svg"
   inkscape:version="0.92.3 (d244b95, 2018-08-02)"
   width="50"
   height="50">
  <metadata
     id="metadata12">
    <rdf:RDF>
      <cc:Work
         rdf:about="">
        <dc:format>image/svg+xml</dc:format>
        <dc:type
           rdf:resource="http://purl.org/dc/dcmitype/StillImage" />
        <dc:title />
      </cc:Work>
    </rdf:RDF>
  </metadata>
  <defs
     id="defs10" />
  <sodipodi:namedview
     pagecolor="#ffffff"
     bordercolor="#666666"
     borderopacity="1"
     objecttolerance="10"
     gridtolerance="10"
     guidetolerance="10"
     inkscape:pageopacity="0"
     inkscape:pageshadow="2"
     inkscape:window-width="1301"
     inkscape:window-height="744"
     id="namedview8"
     showgrid="false"
     inkscape:zoom="13.350176"
     inkscape:cx="24.499115"
     inkscape:cy="19.113169"
     inkscape:window-x="65"
     inkscape:window-y="24"
     inkscape:window-maximized="1"
     inkscape:current-layer="svg6"
     inkscape:snap-smooth-nodes="false"
     inkscape:snap-intersection-paths="false"
     inkscape:object-paths="false"
     inkscape:measure-start="15.9513,39.5742"
     inkscape:measure-end="20.724,44.241"
     inkscape:object-nodes="false" />
  <path
     sodipodi:type="spiral"
     style="fill:none;fill-rule:evenodd;stroke:#000000;stroke-width:4.80000019;stroke-miterlimit:4;stroke-dasharray:none;paint-order:stroke fill markers;stroke-linecap:round"
     id="path814"
     sodipodi:cx="23.438299"
     sodipodi:cy="23.531046"
     sodipodi:expansion="1"
     sodipodi:revolution="3"
     sodipodi:radius="23.638605"
     sodipodi:argument="-17.398869"
     sodipodi:t0="0"
     d="m 23.438299,23.531046 c 0.142012,1.176663 -1.516055,0.771953 -1.955692,0.236032 -1.191388,-1.452311 0.02661,-3.482233 1.483628,-4.147416 2.606256,-1.189856 5.478782,0.685019 6.33914,3.203287 1.262609,3.695661 -1.343321,7.509506 -4.922947,8.530865 -4.771078,1.36131 -9.553289,-2.000403 -10.722588,-6.642607 -1.471444,-5.841739 2.656614,-11.603524 8.362266,-12.914312 6.910309,-1.587541 13.657438,3.312277 15.106036,10.081925 1.707124,7.977797 -3.967588,15.713653 -11.801585,17.297761 C 16.281898,41.005496 7.5551536,34.553915 5.8370721,25.655336 3.8848786,15.544205 11.114654,5.8251058 21.077977,3.9741269 32.255319,1.8976084 42.967818,9.906509 44.95091,20.934691 47.152519,33.178064 38.363813,44.884731 26.270686,46.999349" />
  <path
     style="opacity:1;fill:#f9f9f9;fill-opacity:1;stroke:#ffff00;stroke-width:0;stroke-linecap:round;stroke-miterlimit:4;stroke-dasharray:none;paint-order:stroke fill markers"
     id="path816"
     d="m 23.547101,22.87486 c -0.725081,0.03256 -1.424611,-0.04001 -2.12865,-0.127076 -0.09391,-0.0094 -0.187588,-0.02014 -0.281733,-0.0283 -0.09508,-0.0082 -0.464937,-0.03399 -0.564332,-0.03799 -0.08718,-0.0035 -0.349487,-0.008 -0.262278,-0.0048 0.771267,0.02914 1.016897,0.005 0.517586,0.0388 -0.426269,0.041 -0.85167,0.140385 -1.273254,0.257619 -0.419162,0.129118 -0.838071,0.259411 -1.258318,0.381377 -0.375421,0.100644 -0.745363,0.236175 -1.11957,0.344713 -0.249484,0.06318 -0.493616,0.153049 -0.73459,0.258928 -0.203425,0.09467 -0.413178,0.162851 -0.619315,0.246412 -0.170805,0.06697 -0.32711,0.166511 -0.475841,0.285132 -0.218178,0.191093 -0.432035,0.388494 -0.647972,0.582886 -0.251118,0.209851 -0.489241,0.438663 -0.715335,0.680937 -0.215796,0.243017 -0.427396,0.48937 -0.625398,0.749443 -0.189482,0.251847 -0.365441,0.513055 -0.518768,0.790224 -0.127539,0.224932 -0.234553,0.460086 -0.338154,0.696689 -0.120671,0.274898 -0.261229,0.540263 -0.383378,0.814575 -0.129365,0.285676 -0.227915,0.582859 -0.349242,0.871675 -0.119867,0.280016 -0.2169,0.56584 -0.300696,0.85677 -0.07626,0.314699 -0.140787,0.631327 -0.21938,0.945574 -0.09353,0.320587 -0.15268,0.646415 -0.210571,0.972017 -0.05802,0.341186 -0.05288,0.680741 -0.02938,1.014883 0.0375,0.37574 0.08444,0.749101 0.130077,1.122736 0.06322,0.379084 0.119164,0.760913 0.209336,1.130501 0.101047,0.347011 0.225018,0.683714 0.375912,1.003232 0.155422,0.381364 0.383151,0.710431 0.589797,1.054383 0.0232,0.03789 0.04642,0.07578 0.06961,0.113675 0,0 -1.051205,0.05638 -1.051205,0.05638 v 0 c -0.0206,-0.03806 -0.0412,-0.07612 -0.0618,-0.114196 -0.194062,-0.352988 -0.410606,-0.690004 -0.576181,-1.063439 -0.155956,-0.32569 -0.288582,-0.666882 -0.382071,-1.026617 -0.08559,-0.374747 -0.140276,-0.760115 -0.202019,-1.142998 -0.04909,-0.375335 -0.103629,-0.749518 -0.1365055,-1.129056 -0.02577,-0.343502 -0.03312,-0.694802 0.027274,-1.045736 0.05691,-0.328964 0.118363,-0.657576 0.211967,-0.981503 0.08018,-0.315538 0.140486,-0.634507 0.215742,-0.950927 0.08882,-0.294681 0.176102,-0.588915 0.303763,-0.871742 0.123187,-0.288803 0.220034,-0.587203 0.350743,-0.873145 0.117808,-0.274551 0.256014,-0.539353 0.37413,-0.813641 0.100149,-0.243552 0.21493,-0.481533 0.34626,-0.70997 0.155684,-0.28321 0.333801,-0.550567 0.525574,-0.80882 0.19843,-0.264916 0.411187,-0.514955 0.62849,-0.761977 0.224995,-0.247607 0.463825,-0.48142 0.717122,-0.692909 0.213758,-0.192456 0.424524,-0.388661 0.633676,-0.587099 0.147553,-0.137509 0.30607,-0.248141 0.483882,-0.324809 0.207421,-0.08508 0.417954,-0.153681 0.624616,-0.24211 0.247082,-0.10999 0.495022,-0.215577 0.752722,-0.274054 0.380326,-0.09447 0.752983,-0.240271 1.132639,-0.340521 0.420772,-0.120414 0.840539,-0.247353 1.259285,-0.381092 0.424575,-0.127717 0.854516,-0.226148 1.2849,-0.278039 0.868445,-0.07472 1.730155,-0.0087 2.580188,0.07189 0.169985,0.01919 0.35142,0.04071 0.522518,0.05629 0.413554,0.03766 1.447725,0.05026 -0.435613,0.01277 0,0 1.033678,0.201971 1.033678,0.201971 z"
     inkscape:connector-curvature="0" />
  <path
     inkscape:connector-curvature="0"
     d="m 23.214641,22.686965 c -0.129328,-0.816368 -0.127865,-1.672491 -0.109351,-2.543376 -1.74e-4,-0.114734 0.0012,-0.230028 -5.28e-4,-0.34419 -0.0017,-0.115313 -0.01631,-0.559633 -0.02377,-0.677121 -0.0065,-0.103046 -0.0335,-0.409136 -0.02669,-0.306199 0.06015,0.910396 0.119921,1.178283 0.01699,0.623636 -0.102573,-0.465534 -0.27592,-0.891584 -0.470466,-1.301467 -0.208674,-0.399255 -0.418745,-0.797435 -0.618872,-1.202655 -0.168681,-0.36748 -0.379051,-0.705624 -0.55717,-1.066492 -0.107616,-0.246641 -0.246953,-0.469512 -0.40534,-0.678191 -0.140126,-0.172659 -0.248892,-0.370103 -0.375868,-0.553236 -0.102459,-0.153229 -0.242638,-0.268322 -0.405108,-0.361943 -0.25903,-0.126165 -0.525177,-0.243202 -0.787932,-0.364617 -0.285878,-0.151878 -0.593171,-0.276241 -0.915318,-0.377836 -0.321774,-0.08921 -0.647078,-0.171372 -0.987352,-0.228774 -0.329233,-0.05299 -0.66816,-0.08417 -1.023679,-0.07864 -0.288886,8.54e-4 -0.587636,0.03217 -0.887731,0.06837 -0.348702,0.04173 -0.688285,0.05417 -1.036456,0.0938 -0.36286,0.03877 -0.735874,0.120739 -1.101552,0.170879 -0.35481,0.046 -0.71385,0.12224 -1.077446,0.217142 -0.391513,0.119238 -0.783927,0.253357 -1.175189,0.369626 -0.400806,0.103176 -0.803725,0.249581 -1.206202,0.397226 -0.4214244,0.157798 -0.833042,0.387498 -1.2358118,0.634835 -0.4515427,0.290934 -0.8990258,0.591209 -1.3470036,0.890164 -0.4524164,0.322858 -0.9090656,0.639121 -1.3466113,0.986867 -0.4087914,0.345432 -0.8022304,0.710559 -1.1714677,1.095472 -0.4437631,0.430901 -0.8150819,0.910889 -1.2070806,1.376327 -0.043133,0.05177 -0.086263,0.103582 -0.1293915,0.155352 0,0 -0.1986456,-1.177504 -0.1986456,-1.177504 v 0 c 0.043663,-0.04887 0.087327,-0.09777 0.1309914,-0.146667 0.404529,-0.45685 0.7868804,-0.929152 1.2197598,-1.366558 0.3761044,-0.394829 0.7739211,-0.772916 1.1990967,-1.118 0.4443799,-0.345855 0.9054807,-0.662991 1.3626927,-0.986647 0.4496144,-0.304069 0.8971531,-0.613658 1.3538791,-0.901755 0.4138539,-0.256141 0.8394572,-0.496133 1.2730033,-0.657616 0.4064431,-0.151021 0.8130211,-0.296559 1.2178921,-0.401858 0.393026,-0.115291 0.787752,-0.255799 1.181238,-0.377351 0.368771,-0.09155 0.736811,-0.184604 1.096,-0.223462 0.365894,-0.04797 0.740176,-0.132705 1.103527,-0.170107 0.34792,-0.0448 0.686533,-0.0596 1.034174,-0.103861 0.308097,-0.04478 0.611248,-0.06897 0.904861,-0.06777 0.363127,-0.0066 0.709783,0.02288 1.047068,0.07433 0.346213,0.05471 0.676134,0.135772 1.002952,0.224085 0.328489,0.09681 0.641939,0.218699 0.930075,0.372016 0.260139,0.12016 0.524452,0.234412 0.791277,0.345318 0.185223,0.07988 0.339173,0.190137 0.454281,0.345076 0.128987,0.183596 0.238342,0.381677 0.371303,0.562189 0.16414,0.21302 0.323042,0.429927 0.42595,0.689173 0.1618,0.37721 0.384969,0.711732 0.553703,1.084359 0.198303,0.406854 0.404409,0.808236 0.618644,1.203959 0.207642,0.406432 0.380396,0.838358 0.496699,1.301467 0.198273,0.954241 0.224815,1.993462 0.232275,3.028755 -0.0022,0.209052 -0.0058,0.432887 -0.0036,0.640856 0.0056,0.502678 0.118287,1.705951 -0.06945,-0.494936 0,0 -0.117193,1.327502 -0.117193,1.327502 z"
     id="path818"
     style="opacity:1;fill:#f9f9f9;fill-opacity:1;stroke:#ffff00;stroke-width:0;stroke-linecap:round;stroke-miterlimit:4;stroke-dasharray:none;paint-order:stroke fill markers" />
  <path
     style="opacity:1;fill:#f9f9f9;fill-opacity:1;stroke:#ffff00;stroke-width:0;stroke-linecap:round;stroke-miterlimit:4;stroke-dasharray:none;paint-order:stroke fill markers"
     id="path820"
     d="m 23.238092,22.511508 c 0.755465,-0.259031 1.593478,-0.389533 2.45162,-0.504759 0.11219,-0.01788 0.225436,-0.03422 0.336533,-0.05362 0.112235,-0.01954 0.542032,-0.103096 0.654476,-0.128875 0.09863,-0.02262 0.389064,-0.09758 0.290635,-0.07471 -0.87054,0.202302 -1.112654,0.305152 -0.604413,0.113653 0.421181,-0.177388 0.780116,-0.421553 1.116158,-0.685049 0.320932,-0.276404 0.640345,-0.554082 0.969964,-0.822607 0.303194,-0.23033 0.563775,-0.499058 0.85735,-0.738084 0.20537,-0.148823 0.376887,-0.326648 0.528167,-0.521894 0.122128,-0.17089 0.278987,-0.313316 0.415758,-0.472282 0.115698,-0.129116 0.181516,-0.291183 0.218866,-0.472891 0.03698,-0.286139 0.06264,-0.5782 0.09372,-0.86744 0.05317,-0.317747 0.07226,-0.653297 0.06412,-1.00063 -0.02022,-0.345042 -0.04833,-0.692627 -0.105764,-1.051809 -0.05807,-0.347133 -0.140674,-0.700884 -0.26475,-1.066058 -0.09726,-0.297292 -0.227608,-0.600043 -0.363185,-0.903424 -0.157203,-0.35257 -0.282719,-0.70027 -0.4377,-1.05262 C 29.300605,11.840807 29.095913,11.469408 28.924808,11.100655 28.761382,10.742453 28.56696,10.384557 28.35276,10.024849 28.105436,9.6401485 27.843256,9.2568186 27.598917,8.871922 27.364206,8.4751796 27.086498,8.0829275 26.807726,7.6913218 26.512697,7.281779 26.150601,6.8934145 25.774203,6.5168799 25.338877,6.0968522 24.895769,5.6824455 24.453786,5.2673248 23.986938,4.851321 23.525128,4.4299435 23.038897,4.033087 22.564528,3.6654778 22.076014,3.3167116 21.576221,2.9959148 21.006566,2.605479 20.41307,2.2971977 19.826907,1.965382 c -0.06504,-0.03643 -0.13013,-0.072843 -0.195174,-0.1092733 0,0 1.085619,-0.3860836 1.085619,-0.3860836 v 0 c 0.06238,0.03742 0.124795,0.074838 0.187193,0.112243 0.581946,0.3460411 1.171604,0.6668664 1.74399,1.0450926 0.511786,0.3263401 1.014439,0.6776138 1.493938,1.0621449 0.486661,0.4041843 0.950812,0.8300117 1.420039,1.2508299 0.447533,0.4160159 0.899772,0.8290443 1.334052,1.2548447 0.388709,0.3865889 0.765542,0.7877646 1.068224,1.2092247 0.283399,0.3951691 0.561481,0.7913221 0.799627,1.1919204 0.243968,0.3868647 0.513171,0.7715915 0.763418,1.1579646 0.212638,0.3655521 0.426521,0.7301211 0.584423,1.0939331 0.169061,0.36931 0.376873,0.741589 0.534738,1.109913 0.159963,0.351294 0.28745,0.69763 0.446784,1.048721 0.146649,0.310299 0.271491,0.618678 0.368315,0.921154 0.127699,0.372833 0.214531,0.734289 0.27677,1.089474 0.06204,0.36488 0.09286,0.717052 0.115546,1.067146 0.01484,0.353124 3.16e-4,0.694632 -0.05349,1.014928 -0.03071,0.286354 -0.05427,0.576094 -0.07371,0.867907 -0.01634,0.203015 -0.07281,0.378515 -0.185945,0.520916 -0.136562,0.161108 -0.293832,0.30424 -0.426044,0.468963 -0.153617,0.201838 -0.312763,0.398882 -0.532028,0.544806 -0.31501,0.224747 -0.567777,0.506093 -0.875988,0.737271 -0.331827,0.266898 -0.655693,0.540988 -0.971315,0.822573 -0.328294,0.276446 -0.693177,0.520908 -1.107404,0.712057 -0.86733,0.351273 -1.875112,0.538841 -2.885421,0.70616 -0.20526,0.02989 -0.425427,0.06076 -0.628116,0.09516 -0.489908,0.08323 -1.629406,0.384833 0.460999,-0.147817 0,0 -1.337776,0.08403 -1.337776,0.08403 z"
     inkscape:connector-curvature="0" />
  <path
     inkscape:connector-curvature="0"
     d="m 23.840163,22.745597 c -0.301135,0.61079 -0.763564,1.151801 -1.252175,1.689779 -0.06157,0.07278 -0.125121,0.144774 -0.184722,0.218314 -0.06025,0.07425 -0.283804,0.366193 -0.339082,0.445987 -0.04847,0.06998 -0.184417,0.283371 -0.136266,0.213258 0.425747,-0.620099 0.50602,-0.833112 0.317539,-0.407201 -0.140884,0.369227 -0.184836,0.764836 -0.197398,1.165593 0.0081,0.404289 0.01852,0.80891 0.0145,1.210768 -0.01737,0.355136 0.02558,0.721962 0.02182,1.07976 -0.01774,0.234288 0.01148,0.47656 0.06846,0.723675 0.05692,0.211045 0.06697,0.415026 0.104203,0.62316 0.0271,0.171401 0.115067,0.346045 0.238453,0.523267 0.209128,0.267934 0.43079,0.535253 0.646462,0.802882 0.224002,0.303709 0.485736,0.605528 0.775601,0.903726 0.296199,0.290036 0.599845,0.578264 0.932897,0.861632 0.323615,0.272563 0.669332,0.538358 1.052563,0.792951 0.309445,0.209175 0.645834,0.406235 0.986292,0.601172 0.395424,0.226725 0.765329,0.465372 1.159058,0.693039 0.408971,0.238878 0.852063,0.457773 1.270172,0.691494 0.404257,0.228455 0.829314,0.440833 1.269293,0.644701 0.482939,0.208729 0.97485,0.40869 1.455921,0.619111 0.484229,0.225645 0.993991,0.425453 1.503947,0.624152 0.535683,0.206022 1.099586,0.359405 1.663522,0.495194 0.639569,0.143599 1.279826,0.278329 1.9199,0.414256 0.657689,0.124021 1.316354,0.255276 1.971536,0.352737 0.62318,0.07805 1.240543,0.132497 1.842672,0.15683 0.706593,0.04934 1.36213,0.015 2.03195,0.0047 0.07401,-0.0015 0.148021,-0.0029 0.222036,-0.0044 0,0 -0.421397,0.889775 -0.421397,0.889775 v 0 c -0.07301,-7.6e-4 -0.146038,-0.0015 -0.219047,-0.0022 -0.678603,-0.0044 -1.341798,0.01707 -2.040254,-0.02024 -0.614813,-0.02304 -1.243833,-0.07246 -1.88435,-0.16261 -0.661474,-0.10363 -1.325372,-0.237562 -1.98862,-0.364554 -0.644577,-0.133877 -1.289907,-0.262752 -1.933492,-0.411904 -0.580528,-0.138261 -1.164931,-0.29528 -1.71557,-0.507775 -0.516014,-0.199443 -1.029223,-0.402452 -1.518942,-0.629703 -0.482434,-0.212324 -0.980256,-0.409919 -1.466551,-0.618612 -0.443701,-0.209753 -0.887444,-0.418013 -1.29254,-0.65417 -0.417176,-0.235249 -0.863105,-0.453317 -1.27187,-0.693418 C 27.050439,35.486515 26.680311,35.25006 26.284656,35.025711 25.931015,34.830398 25.593757,34.625633 25.280365,34.41172 24.888401,34.152309 24.533514,33.881957 24.200466,33.604521 23.859619,33.31854 23.550381,33.027704 23.248364,32.734529 22.9492,32.434714 22.679494,32.130031 22.453842,31.823777 22.240284,31.558848 22.019087,31.294624 21.793406,31.03069 c -0.155083,-0.185056 -0.26041,-0.366623 -0.300129,-0.548281 -0.03913,-0.209891 -0.04947,-0.414695 -0.0945,-0.625517 -0.06088,-0.254043 -0.114068,-0.506733 -0.08459,-0.745589 0.03,-0.356301 -0.02861,-0.730125 -0.0086,-1.088555 0.0068,-0.40157 0.0025,-0.80534 -0.01356,-1.211429 -0.0033,-0.408081 0.04444,-0.806978 0.169339,-1.184638 0.301612,-0.748135 0.83265,-1.425409 1.381979,-2.086345 0.114962,-0.130706 0.239256,-0.269864 0.348781,-0.403191 0.264666,-0.322312 0.791817,-1.166034 -0.192149,0.363794 0,0 0.839961,-0.755453 0.839961,-0.755453 z"
     id="path822"
     style="opacity:1;fill:#f9f9f9;fill-opacity:1;stroke:#ffff00;stroke-width:0;stroke-linecap:round;stroke-miterlimit:4;stroke-dasharray:none;paint-order:stroke fill markers" />
  <path
     style="opacity:1;fill:#f9f9f9;fill-opacity:1;stroke:#ffff00;stroke-width:0;stroke-linecap:round;stroke-miterlimit:4;stroke-dasharray:none;paint-order:stroke fill markers"
     id="path824"
     d="m 24.367854,22.712567 c 0.563509,0.25048 1.062639,0.635122 1.558972,1.041541 0.06715,0.05121 0.133567,0.104074 0.201414,0.153649 0.0685,0.05011 0.337845,0.236064 0.411463,0.282045 0.06457,0.04032 0.261435,0.153393 0.19675,0.113343 -0.572097,-0.35413 -0.768621,-0.4209 -0.375679,-0.264124 0.340643,0.117185 0.705628,0.153744 1.075362,0.164192 0.372992,-0.0068 0.746291,-0.0154 1.117041,-0.01206 0.327644,0.01445 0.666074,-0.02128 0.996174,-0.01816 0.216152,0.01476 0.439669,-0.0096 0.667655,-0.05694 0.194708,-0.04735 0.382898,-0.0557 0.57492,-0.08667 0.158132,-0.02254 0.319259,-0.09572 0.482761,-0.198341 0.247193,-0.17395 0.493818,-0.358325 0.740729,-0.537717 0.2802,-0.186323 0.558654,-0.404029 0.833768,-0.645135 0.267584,-0.246374 0.5335,-0.498943 0.794933,-0.77597 0.251463,-0.269179 0.496682,-0.556741 0.731566,-0.875507 0.192984,-0.257392 0.374788,-0.537195 0.554636,-0.820383 0.209173,-0.328908 0.429345,-0.63659 0.63939,-0.964088 0.220386,-0.340177 0.422334,-0.708733 0.637964,-1.056512 0.210769,-0.336254 0.406707,-0.689811 0.594794,-1.055779 0.192571,-0.401702 0.377052,-0.810865 0.571185,-1.211014 0.208177,-0.402775 0.392517,-0.826788 0.575835,-1.250961 0.190074,-0.445574 0.331584,-0.914621 0.456862,-1.383693 0.132481,-0.531985 0.256781,-1.064542 0.382187,-1.596946 0.11442,-0.547057 0.235514,-1.094925 0.325431,-1.639896 0.072,-0.5183523 0.12224,-1.0318652 0.14469,-1.5327077 0.04552,-0.5877335 0.01385,-1.1329995 0.0045,-1.6901464 -0.0014,-0.061565 -0.0027,-0.1231219 -0.0041,-0.1846866 0,0 0.820896,0.3505128 0.820896,0.3505128 v 0 c -7e-4,0.060721 -0.0014,0.1214717 -0.002,0.1822003 -0.0041,0.5644517 0.01574,1.1160884 -0.01867,1.6970535 -0.02125,0.5113921 -0.06685,1.0346019 -0.150024,1.5673741 -0.09561,0.550205 -0.219171,1.102426 -0.336332,1.654106 -0.123514,0.53615 -0.242413,1.072927 -0.380019,1.60825 -0.127558,0.482877 -0.272422,0.968974 -0.468467,1.426988 -0.184003,0.429213 -0.371299,0.856092 -0.580958,1.263434 -0.195887,0.401282 -0.378185,0.815363 -0.570724,1.219856 -0.193515,0.369064 -0.385654,0.738163 -0.603529,1.075116 -0.217039,0.347 -0.418226,0.717918 -0.63974,1.057922 -0.206852,0.329592 -0.425002,0.637459 -0.631984,0.966559 -0.180194,0.294154 -0.369108,0.57468 -0.566462,0.835355 -0.239329,0.326029 -0.488754,0.62122 -0.744713,0.898245 -0.263842,0.283511 -0.532164,0.540732 -0.802644,0.791944 -0.276607,0.248841 -0.557703,0.473179 -0.84025,0.660872 -0.244421,0.177634 -0.488191,0.361623 -0.731692,0.54934 -0.170731,0.128997 -0.338242,0.216607 -0.50584,0.249645 -0.193642,0.03255 -0.382592,0.04115 -0.577094,0.07861 -0.234377,0.05064 -0.467506,0.09488 -0.687871,0.07035 -0.32872,-0.02495 -0.673606,0.02379 -1.00429,0.0071 -0.370483,-0.0057 -0.742997,-0.0021 -1.117651,0.01127 -0.376491,0.0026 -0.744508,-0.03696 -1.092933,-0.140854 -0.690221,-0.250876 -1.315067,-0.692586 -1.924838,-1.14951 -0.120588,-0.09562 -0.248974,-0.199009 -0.371981,-0.29011 -0.29736,-0.220145 -1.075768,-0.658623 0.335633,0.159826 0,0 -0.696973,-0.698668 -0.696973,-0.698668 z"
     inkscape:connector-curvature="0" />
</svg>
