<svg
   xmlns:dc="http://purl.org/dc/elements/1.1/"
   xmlns:cc="http://creativecommons.org/ns#"
   xmlns:rdf="http://www.w3.org/1999/02/22-rdf-syntax-ns#"
   xmlns:svg="http://www.w3.org/2000/svg"
   xmlns="http://www.w3.org/2000/svg"
   xmlns:sodipodi="http://sodipodi.sourceforge.net/DTD/sodipodi-0.dtd"
   xmlns:inkscape="http://www.inkscape.org/namespaces/inkscape"
   width="210mm"
   height="297mm"
   viewBox="0 0 210 297"
   version="1.1"
   id="svg8"
   inkscape:version="0.92.3 (d244b95, 2018-08-02)"
   sodipodi:docname="portrait.svg">

  <g
     inkscape:label="Layer 1"
     inkscape:groupmode="layer"
     id="layer1">
    <path
       style="fill:#000000;stroke:none;stroke-width:2.96499985;stroke-linecap:butt;stroke-linejoin:miter;stroke-opacity:1;stroke-miterlimit:4;stroke-dasharray:none;fill-opacity:1"
       d="m 96.743211,2.9481034 c -0.145004,-0.00159 -0.293981,2.84e-5 -0.447196,0.00501 -2.166867,0.5794312 -4.513803,0.077102 -6.453009,2.0226567 -4.045309,0.4090437 -8.090617,1.0148035 -12.13593,0.1925176 -1.68704,0.2100651 -4.571387,0.2275386 -5.297621,2.1190469 -3.286774,-0.2720839 -6.125086,1.4828938 -10.78749,2.1190479 -0.638362,1.1253805 -0.451258,1.7348395 -2.985776,4.0453165 -1.41265,0.128417 0.436971,0.704772 -3.948931,0.866736 -1.548851,1.014297 -3.767123,1.477774 -2.600485,2.98579 l -3.852777,0.289174 c -2.254533,0.8062 -3.776784,2.893662 -5.008449,5.489876 l -5.008447,1.541229 -1.926524,4.623133 -2.696875,1.540954 c -1.708762,3.927098 -5.159675,5.458819 -5.008442,11.943415 -0.623954,0.802779 -5.180239,2.089627 -5.297353,8.76484 l -0.09641,5.490143 c -1.969701,1.177492 -2.956689,2.248978 -2.889384,2.407964 -0.586333,2.418526 0.204621,3.344023 1.348431,4.526743 -0.454869,1.39255 -0.859097,2.823127 -2.311573,3.467478 0.321064,1.091598 0.256706,2.183107 -0.192781,3.274701 L 17.123532,72.2051 c -1.450552,1.105188 0.552694,5.211509 -0.577821,6.26049 1.171905,4.200187 0.782369,2.969796 1.047668,14.307636 -0.134123,5.614832 -0.931646,12.622734 1.360295,13.142804 1.688333,1.59158 1.045562,2.89167 0.770603,4.23783 l 2.311571,2.69688 c 1.267733,3.19407 -0.963134,4.23783 -0.963134,4.23783 1.277818,4.03892 2.709364,6.98158 6.934715,7.32027 1.163757,2.84032 -1.093696,4.58864 -3.371097,2.79299 1.348249,1.97768 2.185428,3.85314 4.719534,6.06797 0.893137,2.25951 1.253386,4.2734 -1.155922,5.0087 1.473291,0.93821 3.979013,1.66971 3.082173,3.08192 2.33311,1.54743 1.283215,4.66181 0.385321,7.7056 3.317394,1.15812 6.82069,2.238 5.393745,5.39374 2.31782,-0.24223 2.969801,1.85207 4.238081,3.08192 3.241677,9.95075 4.052785,15.04057 4.237845,18.87813 0.452185,16.18122 -1.611239,36.53319 -8.572325,47.86951 -2.663946,4.85075 -5.984014,8.60804 -9.405347,12.19649 -3.332592,3.0281 -6.817385,6.08629 -11.929974,9.46621 v 5.29337 h 2.436142 v 4.84148 h 4.810385 v -2.79325 h 1.161181 v 4.0453 h 0.867 v 2.11904 h 2.446944 v -2.11904 h 0.923895 v 0.96314 h 0.889913 v 1.73769 h -1.756657 v 2.69292 h 1.756657 v 1.25626 H 28.3714 v 1.51276 h -0.293123 v 1.00448 h 0.293125 v 0.1754 h 2.447194 v -0.36949 h 1.342914 v -3.29051 h 2.724259 v 0.15749 h 2.996856 v -1.36212 h 1.225705 v -3.32763 l 0.532266,-0.004 v 3.18646 h 4.810392 v -3.12036 h 3.193309 v -1.42481 h 0.517522 v 1.70372 h -1.710304 v 5.17621 h -3.541477 v 2.96683 H 40.89264 v 2.69265 h 2.017398 v 1.25625 h -1.054264 v 2.69294 h 2.4472 v -1.31869 h 1.598115 v 2.28181 h 2.447193 v -2.28181 h 2.095609 v -5.1762 h 2.001066 v 2.6463 h -1.631554 v 2.69266 h 2.446935 v -0.43535 h 3.994222 v -3.37687 h 3.63578 v 1.62524 h -3.26918 v 4.59916 h -0.161971 v 2.69266 h 2.447209 v -1.99869 h 1.020277 v 1.99869 h 2.446943 v -2.69265 H 62.4305 v -4.20965 h 3.269179 v -4.69557 h 5.289192 v 2.399 h -4.650274 v 5.29342 h 4.650274 v 0.70003 h -1.381102 v 1.8612 h -1.842773 v 3.36689 h 1.842773 v 0.065 h 2.20254 v 3.01714 h 1.059519 v 2.11904 h 3.059798 v -3.36714 h -1.059267 v -2.11903 h -0.452984 v -3.51123 h 3.082709 v -3.08218 h 4.276536 v 0.56045 h -1.816699 v 3.81407 H 76.14611 v 5.29315 h 4.809336 v -3.81381 h 1.642362 v 3.04716 h 3.060041 v -0.32289 h 3.470395 v -5.29341 h -4.35873 v -2.72426 h -1.201468 v -2.39031 h 2.65763 v 3.59731 h 4.315788 v 4.78223 h 0.315517 v 3.11798 h 1.254151 v 2.89334 h 3.393205 v -2.89334 h 0.162232 v -3.11798 h 0.36662 v 4.20779 h 1.086377 V 286.04 h 1.444571 v 2.02267 h 3.393483 v -3.36715 h -1.44483 v -1.22966 h 0.32974 v -5.29341 h -2.152759 v -2.18935 h 4.154069 v 4.21358 h 4.35872 v 2.72427 h 1.86016 v 2.05954 h 3.39349 v -3.36688 h -0.44404 v -3.98607 h -4.35899 v -1.24466 h 3.81409 V 276.193 h 1.55726 v -0.38531 h 1.38691 v 2.88939 h 2.36186 v 2.04556 h 2.90652 v -2.50276 h -1.30972 v -4.16593 h 1.30024 v -3.51568 h 0.46405 v 5.1999 h 2.27128 v 0.49092 h -2.37689 v 2.50278 h 2.90652 v -2.41455 h 0.068 v 3.31474 h 4.80958 v -5.29342 h -2.86884 v -1.29601 h 4.05269 v 3.32025 h 1.49274 v 0.63262 h 1.0864 v 2.57415 h 1.44483 v 2.02265 h 3.39322 v -3.36689 h -1.44458 v -1.22991 h 0.32948 v -3.96552 h 2.00132 v 0.69661 h 4.35873 v 2.724 h 4.80958 v -5.29316 h -4.35896 v -1.24492 h 3.81405 v -5.29341 c 1.19688,-0.57073 -9.10099,-8.69282 -12.83435,-13.47858 l -4.91206,-4.81591 -0.38531,-6.54966 0.86674,-3.94894 0.0963,-4.71952 0.96313,-4.62314 2.69686,-7.32 2.31158,-5.20124 0.3853,-3.46748 -0.57782,-8.47592 c 3.61287,2.08885 6.11366,1.95383 8.66844,1.92651 l 18.23024,0.11274 6.61971,-0.88331 5.04139,-4.67952 2.27863,-7.07111 c -0.36783,-3.22247 -0.14696,-4.67864 -0.19278,-6.93497 0.34175,-4.09033 0.82874,-3.63055 4.43062,-6.93472 2.66553,-0.1904 4.24053,-0.73676 5.25759,-3.5141 -0.37925,-4.26203 -0.95897,-5.17895 -3.85254,-7.44275 0,0 3.54695,-1.57547 4.2144,-3.16171 0.78393,-2.2862 1.43652,-4.37053 1.50805,-6.30052 -1.76992,-2.36498 -3.9812,-5.35316 -2.75326,-8.69189 2.44796,-0.75173 4.41318,-1.50347 6.52624,-2.25519 1.19064,-1.14555 3.98347,-1.96099 4.89545,-7.73851 -0.34917,-3.39912 -1.45446,-5.53795 -2.88939,-7.12749 l -5.58627,-5.77905 -3.08218,-5.58627 -3.08218,-4.81592 -6.74218,-6.9347 -0.38529,-2.31158 c 0.53183,-0.43133 1.42606,-0.50042 2.31156,-0.57808 -0.85864,-0.38527 -1.52399,-0.7704 -2.8894,-1.15567 l 4.23785,-10.402181 -0.77064,-5.971841 -3.27468,-9.824365 -0.57785,-6.742178 -3.08217,-10.016888 2.69687,-5.77905 -0.77062,-5.779058 -4.62313,-10.402186 -7.70531,-10.787497 c -3.68662,0.529203 -7.09931,0.236983 -10.01689,-1.540962 l 2.69688,-4.238095 c -4.26775,-1.77774 -7.69044,-5.584073 -13.09933,-4.623136 0.76598,-1.611854 0.25382,-2.493265 -0.77034,-3.082181 -1.57718,-1.423755 -3.24663,-1.937334 -5.00844,-1.540956 -0.82597,-1.926335 -0.35586,-1.830058 -8.66873,-3.7564003 -0.80179,-2.7347616 -8.64396,-1.93231 -13.77329,-2.0225631 -2.36106,-2.3492194 -5.34546,-3.5555302 -9.24631,-3.081999 C 100.1967,3.711922 98.91833,2.9706593 96.743128,2.9470094 Z M 20.439866,249.74579 c 0.325196,0.17818 0.657035,0.34778 0.996839,0.50671 v 0.54096 h -0.996839 z m -5.171735,4.67949 v 1.00449 h 1.166716 v -1.00449 z m 17.81753,1.27629 h 0.574145 v 2.0266 h -0.574145 z m -11.648956,0.87093 v 2.69266 h 2.4472 v -2.69266 z m -6.842793,1.99423 v 1.00449 h 1.166714 v -1.00449 z m 3.178565,1.44483 v 1.00446 h 1.166457 v -1.00446 z m 7.32002,1.05953 v 1.00448 h 1.166448 v -1.00448 z m 9.828581,2.43613 v 2.69292 h 2.447194 v -2.69292 z m 3.46748,0.19279 v 2.69265 H 40.8355 v -2.69265 z m 102.725362,0.94286 v 1.09242 h -2.91389 v 2.71929 h -0.89993 v 1.22964 h -2.27838 v 2.0395 h -1.21571 v -0.63288 h -3.01106 v -1.59073 h 0.86673 v -2.00236 c 0.29493,-0.13528 0.57209,-0.28452 0.82881,-0.45037 v 1.40719 h 0.83302 v 2.00762 h 1.01792 v -2.00762 h 2.95867 v -3.80985 z m -108.697202,0.3092 v 1.99446 h -1.159866 v 1.00448 H 32.4233 v -0.3063 h 2.44062 v -2.69264 z m -8.094841,1.12746 v 1.00448 H 25.4886 v -1.00448 z m -4.334212,0.3853 v 1.00448 h 1.166706 v -1.00448 z m 18.589197,1.54096 v 1.0045 h 1.166457 v -1.0045 z m 83.828808,0.91255 v 0.007 h -0.13247 c 0.0442,-0.002 0.0883,-0.005 0.13247,-0.007 z m -95.294743,0.66686 -0.0374,1.00369 1.165659,0.0435 0.03739,-1.00371 z m 5.590761,0.93047 v 1.00447 h 1.166448 v -1.00447 z m 30.632954,0.79324 v 2.69293 h 2.446942 v -2.69293 z m -33.815738,0.58785 -0.03739,1.0037 1.165664,0.0435 0.0374,-1.00367 z m 24.087504,0.27918 v 2.69266 h 2.447202 v -2.69266 z m 52.210842,0.26205 h 0.8404 v 2.46668 h -2.28523 v -0.46117 h 1.44483 z m -68.011005,0.57623 v 1.00447 h 1.166722 v -1.00447 z m -4.334215,0.38531 v 1.00449 h 1.166457 v -1.00449 z m 15.607633,0.41376 v 2.69264 h 2.447202 v -2.69264 z m 87.119297,0.48433 v 3.36713 h 1.92627 v 2.98578 h 0.0535 v 0.97683 h 1.16671 v -0.97683 h 2.1733 v -3.36689 h -1.92628 v -2.98603 z m -72.286492,0.0935 v 3.36686 h 3.059793 v -3.36686 z m -9.824371,1.44483 v 2.69265 h 2.447208 v -2.69265 z m -13.492796,0.68396 -0.03739,1.00369 1.165657,0.0436 0.03739,-1.00369 z m 87.318949,0.0977 v 1.5491 h 1.79931 v -1.5491 z m -81.728196,0.83274 v 1.0045 h 1.166447 v -1.0045 z m 11.562051,0.98606 v 2.69264 h 2.44721 v -2.69264 z m -14.744834,0.39503 -0.03739,1.00371 1.165673,0.0436 0.03739,-1.00367 z m 69.821109,0.27654 v 2.50277 h 2.90651 v -2.50277 z m 15.37877,0.11011 v 1.54941 h 1.79932 v -1.54941 z m -64.001774,0.18147 v 3.36714 h 3.059793 v -3.36714 z m 78.841424,0.19569 v 1.9223 h 2.2323 v -1.9223 z m -19.07748,0.68238 v 1.54913 h 1.79932 v -1.54913 z m -55.81502,0.27786 v 3.36686 h 3.060066 v -3.36686 z m -13.791454,0.0277 v 1.00451 h 1.166441 v -1.00451 z m 63.762904,0.16198 v 2.50276 h 2.90652 v -2.50276 z m -16.37904,0.004 v 3.36715 h 1.92627 v 2.98578 h 0.0535 v 0.97658 h 1.16646 v -0.97658 h 2.17357 v -3.36714 h -1.92627 v -2.98579 z m 38.16971,0.30814 v 1.00449 h 1.16647 v -1.00449 z m -88.277848,0.14011 v 1.00449 h 1.166456 v -1.00449 z m 70.982298,0.91126 v 1.54937 h 1.79933 v -1.54937 z m -38.092538,0.0854 v 3.36688 h 3.059792 v -3.36688 z m 47.393868,0.0674 v 1.00448 h 1.16646 v -1.00448 z m -6.31553,0.23256 v 1.54939 h 1.79932 v -1.54939 z m -45.316436,0.37424 v 3.36688 h 3.060059 v -3.36688 z m -34.39332,0.10613 -0.03763,1.00368 1.165651,0.0436 0.0377,-1.00394 z m 68.087396,0.37267 v 2.50303 h 2.90651 v -2.50303 z m 23.42803,0.0221 v 1.0045 h 1.16645 v -1.0045 z m -7.99448,0.48144 v 1.0045 h 1.1667 v -1.0045 z m -11.0032,0.45985 v 2.50276 h 2.90677 v -2.50276 z m -30.226317,0.29155 v 2.21517 h -1.637361 v 3.36714 h 3.05979 v -2.21544 h 1.63736 v -3.36687 z m -27.219215,0.0689 v 1.00449 h 1.166447 v -1.0048 z m 63.286212,0.16198 v 1.54939 h 1.79933 v -1.54939 z m -47.625114,0.15433 v 3.36689 h 3.059791 v -3.36689 z m -5.104566,0.0242 v 1.00449 h 1.166442 v -1.00449 z m -5.312371,0.54491 v 1.00448 h 1.166715 v -1.00448 z m 26.961096,0.39399 v 3.36689 h 3.393479 v -3.36689 z m 15.416165,0.0965 v 1.92206 h 2.23231 v -1.92206 z m 3.66001,0 v 1.92206 h 2.2323 v -1.92206 z m -57.887715,0.463 v 1.00449 h 1.166442 v -1.00449 z m 61.884835,0.51621 v 1.00449 h 1.16644 v -1.00449 z m -34.096242,0.0963 v 1.00448 h 1.166456 v -1.00448 z m -17.504397,0.13669 v 1.00449 h 1.166449 v -1.00449 z m 40.813149,0.24863 v 1.00447 h 1.16645 v -1.00447 z m 16.20731,0.32209 v 1.54911 h 1.79906 v -1.54911 z m -6.86464,0.54465 v 1.00446 h 1.16643 v -1.00446 z m 3.32289,0 v 1.00446 h 1.1667 v -1.00446 z m -20.659807,0.33736 v 1.00447 h 1.166462 v -1.00447 z m 14.399327,0.0479 v 1.00448 h 1.16643 v -1.00448 z m -32.314302,0.4817 v 1.00449 h 1.166448 v -1.00449 z m 23.404872,0.57811 v 1.00448 h 1.1667 v -1.00448 z m -18.878135,0.0965 v 1.00447 h 1.166714 v -1.00447 z m 10.883891,0.38531 v 1.00447 h 1.16644 v -1.00447 z m -25.138609,0.70396 v 1.00448 h 1.166455 v -1.00448 z m 30.388043,1.12615 v 1.00449 h 1.16644 v -1.00449 z m -9.956062,0.0999 v 1.00449 h 1.166455 v -1.00449 z m -13.621323,0.81723 v 1.00447 h 1.166457 v -1.00447 z"
       id="path896"
       inkscape:connector-curvature="0" />
  </g>
</svg>
