<?xml version="1.0" encoding="UTF-8" standalone="no"?>
<!-- Created with Inkscape (http://www.inkscape.org/) -->

<svg
   xmlns:dc="http://purl.org/dc/elements/1.1/"
   xmlns:cc="http://creativecommons.org/ns#"
   xmlns:rdf="http://www.w3.org/1999/02/22-rdf-syntax-ns#"
   xmlns:svg="http://www.w3.org/2000/svg"
   xmlns="http://www.w3.org/2000/svg"
   xmlns:sodipodi="http://sodipodi.sourceforge.net/DTD/sodipodi-0.dtd"
   xmlns:inkscape="http://www.inkscape.org/namespaces/inkscape"
   width="297mm"
   height="210mm"
   viewBox="0 0 297 210"
   version="1.1"
   id="svg8"
   inkscape:version="0.92.3 (d244b95, 2018-08-02)"
   sodipodi:docname="portrait-home.svg">
  <defs
     id="defs2" />
  <sodipodi:namedview
     id="base"
     pagecolor="#ffffff"
     bordercolor="#666666"
     borderopacity="1.0"
     inkscape:pageopacity="0.0"
     inkscape:pageshadow="2"
     inkscape:zoom="0.49497475"
     inkscape:cx="694.9575"
     inkscape:cy="251.19694"
     inkscape:document-units="mm"
     inkscape:current-layer="layer1"
     showgrid="false"
     inkscape:window-width="1301"
     inkscape:window-height="744"
     inkscape:window-x="65"
     inkscape:window-y="24"
     inkscape:window-maximized="1"
     inkscape:object-nodes="false"
     inkscape:snap-intersection-paths="false"
     inkscape:object-paths="true"
     inkscape:snap-page="false"
     inkscape:snap-others="false"
     inkscape:snap-nodes="false" />
  <metadata
     id="metadata5">
    <rdf:RDF>
      <cc:Work
         rdf:about="">
        <dc:format>image/svg+xml</dc:format>
        <dc:type
           rdf:resource="http://purl.org/dc/dcmitype/StillImage" />
        <dc:title></dc:title>
      </cc:Work>
    </rdf:RDF>
  </metadata>
  <g
     inkscape:label="Layer 1"
     inkscape:groupmode="layer"
     id="layer1"
     transform="translate(0,-87)">
    <path
       style="fill:#000000;fill-opacity:1;stroke:none;stroke-width:2.96499991;stroke-linecap:butt;stroke-linejoin:miter;stroke-miterlimit:4;stroke-dasharray:none;stroke-opacity:1"
       d="m 90.747871,235.12887 c -0.09854,-0.001 -0.199621,2e-5 -0.303677,0.003 -1.471418,0.39346 -3.065117,0.0523 -4.381945,1.3735 -2.746988,0.27775 -5.493978,0.6891 -8.24097,0.13068 -1.145593,0.14269 -3.104226,0.15454 -3.597379,1.43895 -2.231901,-0.18477 -4.159273,1.00695 -7.325305,1.43893 -0.433482,0.7642 -0.306429,1.17807 -2.027507,2.747 -0.959268,0.0872 0.296728,0.47859 -2.681542,0.58857 -1.051757,0.68877 -2.558087,1.0035 -1.765874,2.02751 l -2.616251,0.19637 c -1.530952,0.54746 -2.564646,1.96496 -3.401014,3.72793 l -3.401013,1.04658 -1.308217,3.13937 -1.831328,1.04638 c -1.160345,2.66673 -3.503705,3.70684 -3.40101,8.11024 -0.423699,0.54514 -3.517671,1.41898 -3.597197,5.95182 l -0.06547,3.72811 c -1.337536,0.79958 -2.007757,1.52718 -1.962052,1.63514 -0.398152,1.64231 0.138941,2.27078 0.915658,3.07391 -0.30888,0.94562 -0.583374,1.91705 -1.569684,2.3546 0.218019,0.74127 0.174316,1.48246 -0.130906,2.22371 l -1.373496,1.04659 c -0.985005,0.75048 0.375309,3.53889 -0.392373,4.25121 0.795789,2.85215 0.531272,2.01666 0.711426,9.71569 -0.09107,3.81278 -0.632639,8.57153 0.923715,8.92469 1.146471,1.08076 0.709995,1.9636 0.523282,2.87771 l 1.569686,1.83134 c 0.86086,2.16895 -0.654021,2.87773 -0.654021,2.87773 0.867708,2.74264 1.839808,4.74086 4.709056,4.97086 0.790254,1.92874 -0.742681,3.11595 -2.289162,1.8966 0.915535,1.34295 1.484026,2.6165 3.204825,4.12048 0.606489,1.53434 0.851118,2.90188 -0.784935,3.40118 1.000447,0.63711 2.70197,1.13383 2.092967,2.0928 1.584311,1.0508 0.871374,3.16564 0.261653,5.23253 2.252696,0.78643 4.631628,1.51972 3.662653,3.66265 1.573928,-0.16449 2.016659,1.25766 2.877892,2.09279 2.201279,6.75711 2.752066,10.21339 2.877731,12.81931 0.30706,10.98794 -1.09412,24.80806 -5.821084,32.50605 -1.808966,3.29393 -4.063477,5.84533 -6.386752,8.2821 -2.263015,2.05623 -4.629383,4.13293 -8.101115,6.42807 v 3.59449 h 1.654276 v 3.28763 h 3.266519 v -1.89676 h 0.788506 v 2.74698 h 0.588741 v 1.43895 h 1.661611 v -1.43895 h 0.627376 v 0.65402 h 0.604299 v 1.18 h -1.192866 v 1.82863 h 1.192866 v 0.85308 H 44.31962 v 1.02724 h -0.199048 v 0.68211 h 0.199048 v 0.11915 h 1.661781 v -0.2509 h 0.911913 v -2.23445 h 1.849924 v 0.10698 h 2.035031 v -0.92496 h 0.832322 v -2.25964 l 0.361438,-0.003 v 2.16379 h 3.266523 v -2.1189 h 2.168434 v -0.96754 h 0.351426 v 1.15693 h -1.16139 v 3.51493 h -2.404861 v 2.01465 h -1.369924 v 1.82846 h 1.369924 v 0.85306 h -0.715903 v 1.82866 h 1.661785 v -0.89546 h 1.085209 v 1.54947 h 1.661776 v -1.54947 h 1.423035 v -3.51493 h 1.358835 v 1.79698 h -1.107915 v 1.82846 h 1.661604 v -0.29562 h 2.712299 v -2.29308 h 2.468896 v 1.10362 h -2.219955 v 3.12309 h -0.109981 v 1.82847 h 1.661791 v -1.35723 h 0.692824 v 1.35723 h 1.661611 v -1.82847 h -0.640429 v -2.85859 h 2.219953 v -3.18854 h 3.591655 v 1.62904 h -3.157794 v 3.59454 h 3.157794 v 0.47536 h -0.937844 v 1.26386 h -1.251345 v 2.2863 h 1.251345 v 0.0442 h 1.495646 v 2.04881 h 0.719473 v 1.43895 h 2.077772 v -2.28648 h -0.719307 v -1.43893 H 75.58739 v -2.38433 h 2.09333 v -2.09298 h 2.904005 v 0.38059 h -1.23364 v 2.58996 h -2.589788 v 3.59434 h 3.265806 v -2.58979 h 1.115255 v 2.06919 h 2.077938 v -0.21925 h 2.35659 v -3.59452 h -2.959819 v -1.84993 h -0.815865 v -1.62315 h 1.80468 v 2.44277 h 2.930658 v 3.24741 h 0.214254 v 2.11727 h 0.851639 v 1.96475 h 2.30418 v -1.96475 h 0.110224 v -2.11727 h 0.248954 v 2.85732 h 0.737705 v 1.74798 h 0.980946 v 1.3735 h 2.304365 v -2.28604 h -0.981124 v -0.83479 h 0.223922 v -3.59453 h -1.461841 v -1.48669 h 2.820843 v 2.86126 h 2.959801 v 1.84993 h 1.263164 v 1.39855 h 2.304368 v -2.28631 h -0.30154 v -2.70676 h -2.959995 v -0.84519 h 2.589995 v -0.12889 h 1.05745 v -0.26165 h 0.94179 v 1.96206 h 1.60384 v 1.38905 h 1.97369 v -1.69956 h -0.88937 v -2.8289 h 0.88294 v -2.38735 h 0.3151 v 3.53102 h 1.54233 v 0.33337 h -1.61403 v 1.69952 h 1.97368 v -1.63961 h 0.0461 v 2.2509 h 3.26596 v -3.59453 h -1.94809 v -0.88007 h 2.752 v 2.25464 h 1.01365 v 0.42959 h 0.73772 v 1.74798 h 0.98113 v 1.3735 h 2.30417 v -2.28631 h -0.98095 v -0.83517 h 0.22373 v -2.69282 h 1.359 v 0.47304 h 2.95985 v 1.84975 h 3.26596 v -3.59436 h -2.95998 v -0.84536 h 2.58996 v -3.59452 c 0.81275,-0.38756 -6.1801,-5.90292 -8.71523,-9.15271 l -3.33557,-3.27026 -0.26163,-4.44758 0.58855,-2.68156 0.0654,-3.20481 0.65402,-3.13938 1.83133,-4.97068 1.56966,-3.53193 0.26165,-2.35462 -0.39237,-5.75561 c 2.45333,1.41845 4.15153,1.32676 5.88637,1.30821 l 12.37934,0.0766 4.49515,-0.59982 3.42339,-3.17765 1.54731,-4.80168 c -0.24978,-2.18823 -0.0998,-3.17705 -0.13084,-4.70923 0.23207,-2.77757 0.56276,-2.46535 3.00863,-4.70905 1.81004,-0.12938 2.87956,-0.50031 3.5702,-2.38628 -0.25754,-2.89415 -0.6512,-3.5168 -2.61609,-5.05404 0,0 2.40858,-1.06982 2.86182,-2.14697 0.53232,-1.55247 0.97547,-2.96783 1.02404,-4.27841 -1.20188,-1.60595 -2.70346,-3.63509 -1.86962,-5.90227 1.66231,-0.51047 2.9968,-1.02094 4.43169,-1.5314 0.8085,-0.77789 2.70499,-1.33163 3.32427,-5.25488 -0.2371,-2.30819 -0.98765,-3.76057 -1.96205,-4.83997 l -3.79338,-3.92428 -2.09298,-3.7934 -2.09297,-3.27028 -4.57831,-4.70903 -0.26163,-1.5697 c 0.36114,-0.29289 0.96836,-0.33981 1.56968,-0.39255 -0.58307,-0.26162 -1.03488,-0.52313 -1.96207,-0.78477 l 2.87774,-7.06365 -0.52332,-4.05521 -2.22368,-6.67128 -0.39239,-4.57833 -2.09298,-6.80201 1.83133,-3.9243 -0.52328,-3.9243 -3.13937,-7.06366 -5.23234,-7.32531 c -2.50341,0.35936 -4.82081,0.16088 -6.80202,-1.04639 l 1.83133,-2.87791 c -2.89804,-1.20719 -5.22224,-3.7919 -8.89518,-3.13937 0.52014,-1.09453 0.17236,-1.69307 -0.52311,-2.09298 -1.07099,-0.9668 -2.20464,-1.31554 -3.40098,-1.04638 -0.5609,-1.30809 -0.24165,-1.24272 -5.88655,-2.5508 -0.54447,-1.85706 -5.86974,-1.31215 -9.35284,-1.37343 -1.603295,-1.59527 -3.629859,-2.41441 -6.27876,-2.09287 -0.752348,-0.59582 -1.620423,-1.09918 -3.097507,-1.11524 z M 38.933665,402.7182 c 0.220827,0.12094 0.446163,0.23617 0.676909,0.34408 v 0.36735 h -0.676909 z m -3.511896,3.17762 v 0.68211 h 0.792266 v -0.68211 z m 12.099093,0.86668 h 0.389877 v 1.37618 h -0.389877 z m -7.910288,0.59141 v 1.82847 h 1.661785 v -1.82847 z m -4.646636,1.3542 v 0.68209 h 0.792263 v -0.68209 z m 2.158421,0.98111 v 0.68209 h 0.792089 v -0.68209 z m 4.9707,0.71949 v 0.68209 h 0.792084 v -0.68209 z m 6.674153,1.65425 v 1.82865 h 1.66178 v -1.82865 z m 2.354612,0.13084 v 1.82846 h 1.661609 v -1.82846 z m 69.756226,0.64026 v 0.74181 h -1.9787 v 1.84656 h -0.61111 v 0.83499 h -1.54714 v 1.38493 h -0.82553 v -0.42976 h -2.04467 v -1.0802 h 0.58856 v -1.35972 c 0.20027,-0.0919 0.38848,-0.19319 0.56281,-0.30581 v 0.95555 h 0.56566 v 1.36329 h 0.6912 v -1.36329 h 2.00911 v -2.5871 z m -73.811438,0.20996 v 1.35435 h -0.787613 v 0.6821 h 0.792082 v -0.20799 h 1.657317 v -1.82846 z m -5.496846,0.76561 v 0.68209 h 0.792269 v -0.68209 z m -2.943171,0.26164 v 0.6821 h 0.792259 v -0.6821 z m 12.623097,1.04639 v 0.68213 h 0.792089 v -0.68213 z m 56.924418,0.61968 v 0.005 h -0.0899 c 0.03,-0.001 0.0599,-0.003 0.0899,-0.005 z m -64.710424,0.45284 -0.02539,0.68156 0.791547,0.0295 0.02539,-0.68159 z m 3.796437,0.63183 v 0.68209 h 0.792082 v -0.68209 z m 20.801476,0.53866 v 1.82865 h 1.661609 v -1.82865 z m -22.962764,0.39919 -0.02539,0.68155 0.79155,0.0295 0.02539,-0.68156 z m 16.356753,0.18957 v 1.82847 h 1.661786 v -1.82847 z m 35.454051,0.17795 h 0.570682 v 1.67502 h -1.551789 v -0.31317 h 0.981107 z M 50.7264,418.51867 v 0.68209 h 0.792269 v -0.68209 z m -2.943172,0.26165 v 0.6821 h 0.792089 v -0.6821 z m 10.598448,0.28096 v 1.82846 h 1.661786 v -1.82846 z m 59.158824,0.32889 v 2.28648 h 1.30805 v 2.0275 h 0.0364 v 0.66333 h 0.79225 v -0.66333 h 1.47582 v -2.28631 h -1.3081 v -2.02767 z m -49.086526,0.0635 v 2.28628 h 2.07777 v -2.28628 z m -6.671293,0.98113 v 1.82845 h 1.661791 v -1.82845 z m -9.162357,0.46445 -0.02539,0.68155 0.791547,0.0295 0.02539,-0.68156 z m 59.294416,0.0664 v 1.05192 h 1.22183 v -1.05192 z m -55.497984,0.56547 v 0.68211 h 0.792082 v -0.68211 z m 7.851275,0.66959 v 1.82846 h 1.661791 v -1.82846 z m -10.012561,0.26824 -0.02539,0.68159 0.791556,0.0295 0.02539,-0.68154 z m 47.41241,0.18779 v 1.69953 h 1.97368 v -1.69953 z m 10.44304,0.0748 v 1.05215 h 1.22183 v -1.05215 z m -43.46076,0.12321 v 2.28648 h 2.077769 v -2.28648 z m 53.53771,0.13295 v 1.30536 h 1.51585 v -1.30536 z m -12.95467,0.46338 v 1.05195 h 1.22183 v -1.05195 z m -37.901502,0.18868 v 2.28628 h 2.077955 v -2.28628 z m -9.365164,0.0188 v 0.68213 h 0.792079 v -0.68213 z m 43.298546,0.11007 v 1.69951 h 1.9737 v -1.69951 z m -11.122276,0.003 v 2.28648 h 1.308047 v 2.02752 h 0.03636 v 0.66315 h 0.792088 v -0.66315 h 1.475979 v -2.28647 h -1.308046 v -2.02753 z m 25.919346,0.20925 v 0.68211 h 0.79211 v -0.68211 z m -59.945549,0.0951 v 0.6821 h 0.792089 v -0.6821 z m 48.200929,0.61879 v 1.05212 h 1.22184 v -1.05212 z m -25.866955,0.058 v 2.28629 h 2.077767 v -2.28629 z m 32.183065,0.0458 v 0.6821 h 0.7921 v -0.6821 z m -4.28859,0.15795 v 1.05212 h 1.22185 v -1.05212 z m -30.77238,0.25414 v 2.28629 h 2.077951 v -2.28629 z m -23.354973,0.0721 -0.02555,0.68156 0.791542,0.0295 0.0256,-0.68173 z m 46.235133,0.25306 v 1.69971 h 1.97367 v -1.69971 z m 15.90892,0.0146 v 0.68211 h 0.79207 v -0.68211 z m -5.42869,0.32693 v 0.6821 h 0.79225 v -0.6821 z m -7.47178,0.31226 v 1.69951 h 1.97385 v -1.69951 z m -20.525356,0.19798 v 1.50423 h -1.111858 v 2.28647 h 2.077767 v -1.50442 h 1.111859 v -2.28628 z m -18.483356,0.0468 v 0.68211 h 0.792082 v -0.68232 z m 42.974862,0.11006 v 1.05212 h 1.22183 v -1.05212 z m -32.340108,0.10471 v 2.28631 h 2.077767 v -2.28631 z m -3.466284,0.0164 v 0.68211 h 0.792079 v -0.68211 z m -3.607394,0.37003 v 0.68209 h 0.792263 v -0.68209 z m 18.30808,0.26754 v 2.28629 h 2.304364 v -2.28629 z m 10.468429,0.0656 v 1.30517 h 1.515867 v -1.30517 z m 2.485357,0 v 1.30517 h 1.51586 v -1.30517 z m -39.308976,0.31439 v 0.68211 h 0.792079 v -0.68211 z m 42.023246,0.35054 v 0.68211 h 0.79207 v -0.68211 z m -23.153249,0.0654 v 0.68211 h 0.792089 v -0.68211 z m -11.886456,0.0929 v 0.6821 h 0.792082 v -0.6821 z m 27.714393,0.16884 v 0.68209 h 0.792087 v -0.68209 z m 11.005672,0.21871 v 1.05193 h 1.22166 v -1.05193 z m -4.66147,0.36984 v 0.68209 h 0.79207 v -0.68209 z m 2.25641,0 v 0.68209 h 0.79227 v -0.68209 z m -14.029155,0.22909 v 0.68209 h 0.792103 v -0.68209 z m 9.777955,0.0325 v 0.68211 h 0.79207 v -0.68211 z m -21.943212,0.3271 v 0.68211 h 0.792083 v -0.68211 z m 15.8932,0.39257 v 0.68211 h 0.792266 v -0.68211 z m -12.819294,0.0656 v 0.68209 h 0.792263 v -0.68209 z m 7.390767,0.26165 v 0.68209 h 0.792071 v -0.68209 z m -17.070512,0.47802 v 0.6821 h 0.792088 v -0.6821 z m 20.635165,0.76472 v 0.6821 h 0.792087 v -0.6821 z m -6.760716,0.0679 v 0.68211 h 0.792087 v -0.68211 z m -9.249635,0.55495 v 0.68209 h 0.792089 v -0.68209 z"
       id="path896"
       inkscape:connector-curvature="0" />
    <circle
       style="opacity:1;fill:#000000;fill-opacity:1;stroke:none;stroke-width:0;stroke-miterlimit:4;stroke-dasharray:none;paint-order:stroke fill markers"
       id="path816"
       cx="146.93929"
       cy="243.06073"
       r="1.5922532" />
    <circle
       style="opacity:1;fill:#000000;fill-opacity:1;stroke:none;stroke-width:0;stroke-miterlimit:4;stroke-dasharray:none;paint-order:stroke fill markers"
       id="path818"
       cx="158.05061"
       cy="235.19162"
       r="5.7321115" />
    <circle
       style="opacity:1;fill:#000000;fill-opacity:1;stroke:none;stroke-width:0;stroke-miterlimit:4;stroke-dasharray:none;paint-order:stroke fill markers"
       id="path820"
       cx="174.23695"
       cy="223.24503"
       r="8.7573929" />
    <circle
       r="45.01115"
       cy="189.88654"
       cx="226.71022"
       id="circle822"
       style="opacity:1;fill:#000000;fill-opacity:1;stroke:none;stroke-width:0;stroke-miterlimit:4;stroke-dasharray:none;paint-order:stroke fill markers" />
    <rect
       style="opacity:1;fill:#ffffff;fill-opacity:1;stroke:none;stroke-width:0;stroke-miterlimit:4;stroke-dasharray:none;paint-order:stroke fill markers"
       id="rect824"
       width="31.208164"
       height="50.495872"
       x="210.43639"
       y="164.63155"
       ry="1.9377093"
       rx="1.9377093" />
    <rect
       style="opacity:1;fill:#ffffff;fill-opacity:1;stroke:none;stroke-width:0;stroke-miterlimit:4;stroke-dasharray:none;paint-order:stroke fill markers"
       id="rect828"
       width="0.5629465"
       height="5.0665188"
       x="241.4028"
       y="170.86163"
       rx="0.28348252"
       ry="0.28348252" />
    <rect
       ry="0.28348252"
       rx="0.28348252"
       y="177.05765"
       x="241.4028"
       height="1.9984599"
       width="0.5629465"
       id="rect830"
       style="opacity:1;fill:#ffffff;fill-opacity:1;stroke:none;stroke-width:0;stroke-miterlimit:4;stroke-dasharray:none;paint-order:stroke fill markers" />
    <rect
       style="opacity:1;fill:#000000;fill-opacity:1;stroke:none;stroke-width:0;stroke-miterlimit:4;stroke-dasharray:none;paint-order:stroke fill markers"
       id="rect832"
       width="28.497295"
       height="15.385609"
       x="211.79181"
       y="166.43393"
       ry="1.9377105"
       rx="1.9377105" />
    <rect
       rx="1.9377093"
       ry="1.9377093"
       y="164.63155"
       x="210.43639"
       height="50.495872"
       width="31.208164"
       id="rect834"
       style="opacity:1;fill:#ffffff;fill-opacity:1;stroke:none;stroke-width:0;stroke-miterlimit:4;stroke-dasharray:none;paint-order:stroke fill markers" />
    <rect
       rx="1.9377105"
       ry="1.9377105"
       y="182.18669"
       x="211.79181"
       height="15.385609"
       width="28.497295"
       id="rect836"
       style="opacity:1;fill:#003380;fill-opacity:1;stroke:none;stroke-width:0;stroke-miterlimit:4;stroke-dasharray:none;paint-order:stroke fill markers" />
    <rect
       style="opacity:1;fill:#ffff00;fill-opacity:1;stroke:none;stroke-width:0;stroke-miterlimit:4;stroke-dasharray:none;paint-order:stroke fill markers"
       id="rect838"
       width="19.152384"
       height="14.372305"
       x="211.79181"
       y="166.43393"
       ry="1.9377105"
       rx="1.9377105" />
    <rect
       rx="1.9377105"
       ry="1.9377105"
       y="166.43393"
       x="232.39565"
       height="14.372305"
       width="7.8934522"
       id="rect840"
       style="opacity:0.57099998;fill:#0000ff;fill-opacity:1;stroke:none;stroke-width:0;stroke-miterlimit:4;stroke-dasharray:none;paint-order:stroke fill markers" />
    <rect
       style="opacity:0.521;fill:#0000ff;fill-opacity:1;stroke:none;stroke-width:0;stroke-miterlimit:4;stroke-dasharray:none;paint-order:stroke fill markers"
       id="rect848"
       width="8.1250057"
       height="9.0792351"
       x="221.86537"
       y="198.71533"
       ry="1.9377104"
       rx="1.9377105" />
    <rect
       rx="1.9377104"
       ry="1.9377104"
       y="198.71533"
       x="231.77002"
       height="9.0792351"
       width="8.5190678"
       id="rect850"
       style="opacity:1;fill:#ffcb00;fill-opacity:1;stroke:none;stroke-width:0;stroke-miterlimit:4;stroke-dasharray:none;paint-order:stroke fill markers" />
    <rect
       rx="1.9377105"
       ry="1.9377104"
       y="198.71533"
       x="211.79181"
       height="9.0792351"
       width="8.3501844"
       id="rect852"
       style="opacity:1;fill:#00c8ff;fill-opacity:1;stroke:none;stroke-width:0;stroke-miterlimit:4;stroke-dasharray:none;paint-order:stroke fill markers" />
    <rect
       style="opacity:1;fill:none;fill-opacity:1;stroke:#000000;stroke-width:0.40000001;stroke-miterlimit:4;stroke-dasharray:none;paint-order:stroke fill markers"
       id="rect854"
       width="5.1791086"
       height="3.1525006"
       x="223.3885"
       y="210.34138"
       rx="0.434313"
       ry="0.434313" />
  </g>
</svg>
